#N canvas 125 106 549 266 12;
#X obj 80 191 dac~ 1 2;
#X obj 109 80 adc~ 1;
#X obj 224 81 r frq;
#X obj 108 122 lr_crossover 2000;
#X text 71 29 https://en.wikipedia.org/wiki/Linkwitz%E2%80%93Riley_filter;
#X text 71 10 Second-order Linkwitz–Riley crossover (LR2 \, LR-2);
#X connect 1 0 3 0;
#X connect 2 0 3 1;
#X connect 3 0 0 0;
#X connect 3 0 0 1;
