#N canvas 125 106 660 431 12;
#X obj 48 362 dac~ 1 2;
#X text 213 265 scipy.signal.butter(2 \, f \, btype='low' \, analog=False \, output='ba' \, fs=fs);
#X text 213 306 scipy.signal.butter(2 \, f \, btype='high' \, analog=False \, output='ba' \, fs=fs);
#X text 212 228 coefficients for Linkwitz-Riley f=2000 Hz @ fs=48000;
#X msg 295 129 set \$1 \$2 \$3 \$4 \$5;
#X msg 116 128 set \$1 \$2 \$3 \$4 \$5;
#X obj 64 22 adc~ 1;
#X obj 145 22 r frq;
#N canvas -152 -1078 648 625 coefs 0;
#X obj 65 70 samplerate~;
#X text 788 158 k;
#X obj 33 20 inlet;
#X text 79 21 frq;
#X obj 129 16 nbx 5 17 -1e+37 1e+37 0 0 empty empty empty 0 -10 0 12 #fcfcfc #000000 #000000 0 256;
#X obj 36 518 pack 0 0 0 0 0;
#X obj 36 554 outlet;
#X obj 33 44 t f b;
#X obj 33 95 /;
#X obj 34 200 expr 1/(1+sqrt(2)*$f1 + $f1*$f1);
#X obj 100 288 * 2;
#X obj 316 517 pack 0 0 0 0 0;
#X obj 316 553 outlet;
#X obj 34 160 t f f;
#X obj 36 326 expr -2*($f2*$f2-1)*$f1;
#X obj 56 366 expr (1 - sqrt(2)*$f2 + $f2*$f2) * $f1;
#X text 144 518 b1 b2 a0 a1 a2;
#X text 441 518 b1 b2 a0 a1 a2;
#X obj 35 245 t f f f;
#X text 164 539 LP;
#X text 477 544 HP;
#X text 329 119 ita;
#X text 271 199 a0;
#X obj 364 404 expr $f1*$f2*$f2;
#X obj 401 440 expr -$f1*$f2*$f2;
#X obj 32 122 expr 1 / tan(3.1415926535897932384 * $f1);
#X connect 0 0 8 1;
#X connect 2 0 7 0;
#X connect 4 0 7 0;
#X connect 5 0 6 0;
#X connect 7 0 8 0;
#X connect 7 1 0 0;
#X connect 8 0 25 0;
#X connect 9 0 18 0;
#X connect 10 0 5 3;
#X connect 10 0 24 0;
#X connect 11 0 12 0;
#X connect 13 0 9 0;
#X connect 13 1 14 1;
#X connect 13 1 15 1;
#X connect 13 1 23 1;
#X connect 13 1 24 1;
#X connect 14 0 5 0;
#X connect 14 0 11 0;
#X connect 15 0 5 1;
#X connect 15 0 11 1;
#X connect 18 0 14 0;
#X connect 18 2 10 0;
#X connect 18 2 5 4;
#X connect 18 2 5 2;
#X connect 18 2 15 0;
#X connect 18 2 23 0;
#X connect 23 0 11 4;
#X connect 23 0 11 2;
#X connect 24 0 11 3;
#X connect 25 0 13 0;
#X restore 145 83 pd coefs;
#X text 316 156 b1 b2 a0 a1 a2;
#X text 137 150 b1 b2 a0 a1 a2;
#X obj 113 250 biquad~;
#X obj 47 249 biquad~;
#X obj 111 312 biquad~;
#X obj 46 313 biquad~;
#X obj 231 22 loadbang;
#X msg 230 47 2000;
#X connect 4 0 11 0;
#X connect 4 0 13 0;
#X connect 5 0 12 0;
#X connect 5 0 14 0;
#X connect 6 0 11 0;
#X connect 6 0 12 0;
#X connect 7 0 8 0;
#X connect 8 0 5 0;
#X connect 8 1 4 0;
#X connect 11 0 13 0;
#X connect 12 0 14 0;
#X connect 13 0 0 1;
#X connect 14 0 0 0;
#X connect 15 0 16 0;
#X connect 16 0 8 0;
