#N canvas 125 106 549 266 12;
#X obj 74 77 adc~ 1;
#X text 71 29 https://en.wikipedia.org/wiki/Linkwitz%E2%80%93Riley_filter;
#X text 71 10 Second-order Linkwitz–Riley crossover (LR2 \, LR-2);
#X obj 75 218 dac~ 1 2;
#X obj 145 78 r frq;
#X obj 74 120 lr_crossover 2000;
#X obj 256 128 dbtorms;
#X obj 189 151 *~ 1;
#X obj 255 79 r hf_att;
#X obj 256 104 + 100;
#X obj 190 79 r lf_del;
#N canvas 63 98 450 300 delay 0;
#X obj 55 32 inlet~;
#X obj 54 215 outlet~;
#X obj 55 88 delwrite~ \$0-del 10;
#X obj 54 171 delread4~ \$0-del 10;
#X obj 241 34 inlet;
#X connect 0 0 2 0;
#X connect 3 0 1 0;
#X connect 4 0 3 0;
#X restore 75 155 pd delay;
#X connect 0 0 5 0;
#X connect 4 0 5 1;
#X connect 5 0 11 0;
#X connect 5 1 7 0;
#X connect 6 0 7 1;
#X connect 7 0 3 1;
#X connect 8 0 9 0;
#X connect 9 0 6 0;
#X connect 10 0 11 1;
#X connect 11 0 3 0;
