#N canvas 95 127 484 258 12;
#X obj 50 186 dac~ 1;
#X obj 173 182 adc~ 1;
#X obj 51 28 r frq;
#X obj 124 27 r vol;
#X text 171 155 currently \, hvcc needs adc~ to compile...;
#X obj 50 111 osc~ 433;
#X obj 50 148 *~ 0.01;
#X obj 123 112 dbtorms;
#X connect 2 0 5 0;
#X connect 3 0 7 0;
#X connect 5 0 6 0;
#X connect 6 0 0 0;
#X connect 7 0 6 1;
